<svg width="32" height="32" viewBox="0 0 32 32" fill="none" xmlns="http://www.w3.org/2000/svg">
<path fill-rule="evenodd" clip-rule="evenodd" d="M16 0C7.16344 0 0 7.16344 0 16C0 24.8366 7.16344 32 16 32C24.8366 32 32 24.8366 32 16C32 7.16344 24.8366 0 16 0ZM24.3592 14.2727C24.4746 14.8332 24.5333 15.4107 24.5333 15.9882C24.5333 16.5653 24.4746 17.1416 24.3592 17.7034C24.2466 18.2518 24.08 18.7902 23.8616 19.3049C23.6483 19.8104 23.3837 20.2977 23.0745 20.752C22.7699 21.2035 22.4191 21.6271 22.0336 22.0132C21.6474 22.3976 21.2223 22.7475 20.7711 23.0534C20.3152 23.3605 19.8273 23.6247 19.3214 23.839C18.806 24.0562 18.2663 24.2226 17.7184 24.3349C17.1559 24.4506 16.5775 24.5097 15.9996 24.5097C15.4212 24.5097 14.8429 24.4506 14.2812 24.3349C13.7324 24.2226 13.1928 24.0562 12.6778 23.839C12.1719 23.6247 11.6835 23.3605 11.2277 23.0534C10.7764 22.7476 10.3514 22.3976 9.96597 22.0132C9.58012 21.6271 9.22925 21.2035 8.92424 20.752C8.61673 20.2977 8.35169 19.8104 8.13753 19.3049C7.91916 18.7902 7.75209 18.2517 7.63916 17.7034C7.525 17.1416 7.46665 16.5653 7.46665 15.9882C7.46665 15.4107 7.52497 14.8332 7.6392 14.2727C7.75213 13.7243 7.91919 13.185 8.13756 12.6712C8.35173 12.1652 8.61676 11.6776 8.92428 11.2232C9.22929 10.7713 9.58016 10.3485 9.966 9.962C10.3514 9.57751 10.7765 9.22845 11.2277 8.92304C11.6836 8.6147 12.172 8.35052 12.6778 8.1358C13.1928 7.91814 13.7324 7.75132 14.2812 7.63982C14.8429 7.52499 15.4213 7.46672 15.9996 7.46672C16.5776 7.46672 17.1559 7.52499 17.7184 7.63982C18.2664 7.75135 18.806 7.91818 19.3215 8.1358C19.8273 8.35049 20.3153 8.6147 20.7711 8.92304C21.2224 9.22845 21.6474 9.57751 22.0337 9.962C22.4191 10.3485 22.77 10.7713 23.0746 11.2232C23.3837 11.6776 23.6483 12.1652 23.8616 12.6712C24.08 13.185 24.2466 13.7243 24.3592 14.2727Z" fill="#B4F8D1"/>
<path fill-rule="evenodd" clip-rule="evenodd" d="M20.8115 10.5276L20.8122 10.5266C19.5291 9.39692 17.8445 8.71167 15.9994 8.71167C15.4073 8.71167 14.8327 8.78324 14.2822 8.91555L14.2941 8.93141C14.4666 9.1622 15.7945 10.9382 17.0065 13.1604C19.7337 12.1395 20.7771 10.5791 20.8115 10.5276ZM21.6268 11.366C21.5984 11.4065 20.4262 13.0788 17.5674 14.2447C17.7365 14.5918 17.9003 14.945 18.0516 15.2999C18.1053 15.4273 18.1578 15.5521 18.2091 15.6769C20.6646 15.3684 23.0844 15.8716 23.2757 15.9114L23.2844 15.9132C23.2677 14.1881 22.6497 12.6049 21.6272 11.3654L21.6268 11.366ZM18.6533 16.8254C19.6091 19.4484 19.9975 21.5846 20.0717 22.0232C21.708 20.9205 22.8702 19.1697 23.1943 17.1416C23.0443 17.0933 21.0055 16.4488 18.6533 16.8254ZM17.2878 17.1625C18.3133 19.8238 18.7366 22.0523 18.8445 22.6881C17.9699 23.0596 17.0086 23.2648 15.9994 23.2648C14.3093 23.2648 12.7576 22.6852 11.5204 21.7244C11.5356 21.6915 12.9397 18.6751 17.2395 17.1783C17.2495 17.1746 17.2597 17.1714 17.27 17.1682L17.27 17.1682L17.2701 17.1681L17.2878 17.1625ZM16.1998 14.72C16.4086 15.1286 16.6082 15.5431 16.7911 15.9566C16.6953 15.9841 16.5986 16.0124 16.5036 16.044C12.5709 17.3139 10.5766 20.8469 10.5791 20.8507C9.4182 19.562 8.71191 17.8577 8.71191 15.9883C8.71191 15.9343 8.71369 15.8815 8.71549 15.8283C8.7163 15.8044 8.71711 15.7804 8.71776 15.7561C8.84692 15.7611 12.4475 15.8418 16.1998 14.72ZM15.596 13.5993C14.3347 11.3616 12.9872 9.53546 12.8901 9.40602C10.8579 10.3643 9.34111 12.2342 8.86816 14.4877L8.87516 14.4878C9.12422 14.4901 12.1339 14.5179 15.596 13.5993Z" fill="#B4F8D1"/>
</svg>
