<svg width="32" height="32" viewBox="0 0 32 32" fill="none" xmlns="http://www.w3.org/2000/svg">
<path fill-rule="evenodd" clip-rule="evenodd" d="M0 16C0 24.8366 7.16344 32 16 32C24.8366 32 32 24.8366 32 16C32 7.16344 24.8366 0 16 0C7.16344 0 0 7.16344 0 16ZM26.0414 15.3876C26.0393 20.6321 21.773 24.8995 16.5274 24.9016H16.5234C14.9311 24.9011 13.3665 24.5016 11.9769 23.7436L6.93332 25.0666L8.28307 20.1365C7.45048 18.6936 7.01238 17.0569 7.01309 15.3801C7.01518 10.1344 11.2832 5.86661 16.5273 5.86661C19.0724 5.86771 21.4612 6.85852 23.2575 8.65688C25.0537 10.4552 26.0424 12.8455 26.0414 15.3876Z" fill="#B4F8D1"/>
<path fill-rule="evenodd" clip-rule="evenodd" d="M9.21783 22.8064L12.2108 22.0213L12.4995 22.1926C13.7136 22.9131 15.1054 23.2944 16.5244 23.2949H16.5276C20.8861 23.2949 24.4335 19.7474 24.4352 15.3871C24.436 13.2741 23.6143 11.2874 22.1213 9.79267C20.6283 8.29794 18.6428 7.47437 16.5307 7.47363C12.1688 7.47363 8.62136 11.0207 8.61963 15.3807C8.61902 16.8749 9.03709 18.3301 9.82867 19.5891L10.0167 19.8883L9.21783 22.8064ZM20.9951 17.4361C21.1609 17.5162 21.2729 17.5703 21.3207 17.6501C21.3801 17.7493 21.3801 18.2252 21.1821 18.7806C20.9839 19.3359 20.0342 19.8427 19.5774 19.9109C19.1679 19.9722 18.6496 19.9977 18.0801 19.8167C17.7349 19.7072 17.2921 19.5609 16.7249 19.316C14.4963 18.3537 12.9902 16.1936 12.7055 15.7854C12.6856 15.7568 12.6717 15.7368 12.6639 15.7264L12.662 15.7239C12.5362 15.556 11.6932 14.4313 11.6932 13.2672C11.6932 12.1722 12.2311 11.5983 12.4787 11.3341C12.4956 11.316 12.5112 11.2993 12.5252 11.2841C12.7431 11.0461 13.0007 10.9866 13.1591 10.9866C13.3176 10.9866 13.4763 10.988 13.6148 10.995C13.6318 10.9958 13.6496 10.9957 13.668 10.9956C13.8065 10.9948 13.9792 10.9938 14.1496 11.4031C14.2152 11.5606 14.3111 11.7941 14.4122 12.0403C14.6168 12.5383 14.8428 13.0886 14.8826 13.1682C14.942 13.2872 14.9816 13.426 14.9024 13.5847C14.8905 13.6085 14.8795 13.631 14.869 13.6524C14.8095 13.7739 14.7657 13.8633 14.6647 13.9812C14.625 14.0276 14.5839 14.0776 14.5429 14.1276C14.4611 14.2272 14.3793 14.3268 14.3081 14.3977C14.1891 14.5163 14.0652 14.6449 14.2039 14.8829C14.3425 15.1209 14.8196 15.8993 15.5263 16.5297C16.286 17.2073 16.9463 17.4937 17.281 17.6389C17.3463 17.6672 17.3993 17.6902 17.4381 17.7096C17.6757 17.8287 17.8144 17.8088 17.9531 17.6501C18.0918 17.4915 18.5474 16.956 18.7058 16.718C18.8643 16.4801 19.0228 16.5197 19.2407 16.599C19.4586 16.6784 20.6274 17.2535 20.8651 17.3725C20.9115 17.3957 20.9549 17.4167 20.9951 17.4361Z" fill="#B4F8D1"/>
</svg>
