<svg width="32" height="32" viewBox="0 0 32 32" fill="none" xmlns="http://www.w3.org/2000/svg">
<path fill-rule="evenodd" clip-rule="evenodd" d="M16 0C7.16344 0 0 7.16344 0 16C0 24.8366 7.16344 32 16 32C24.8366 32 32 24.8366 32 16C32 7.16344 24.8366 0 16 0ZM22.6677 10.4996C23.4021 10.7011 23.9804 11.2949 24.1767 12.0489C24.5333 13.4154 24.5333 16.2667 24.5333 16.2667C24.5333 16.2667 24.5333 19.1179 24.1767 20.4846C23.9804 21.2386 23.4021 21.8323 22.6677 22.0339C21.3369 22.4001 16 22.4001 16 22.4001C16 22.4001 10.6631 22.4001 9.33216 22.0339C8.5978 21.8323 8.01948 21.2386 7.82321 20.4846C7.46665 19.1179 7.46665 16.2667 7.46665 16.2667C7.46665 16.2667 7.46665 13.4154 7.82321 12.0489C8.01948 11.2949 8.5978 10.7011 9.33216 10.4996C10.6631 10.1334 16 10.1334 16 10.1334C16 10.1334 21.3369 10.1334 22.6677 10.4996Z" fill="#B4F8D1"/>
<path d="M14.3999 19.2V13.8667L18.6666 16.5335L14.3999 19.2Z" fill="#B4F8D1"/>
</svg>
