<svg width="32" height="32" viewBox="0 0 32 32" fill="none" xmlns="http://www.w3.org/2000/svg">
<path fill-rule="evenodd" clip-rule="evenodd" d="M16 0C7.16344 0 0 7.16344 0 16C0 24.8366 7.16344 32 16 32C24.8366 32 32 24.8366 32 16C32 7.16344 24.8366 0 16 0ZM12.4822 7.51828C13.3924 7.47686 13.6833 7.46672 16.0008 7.46672H15.9981C18.3164 7.46672 18.6061 7.47686 19.5164 7.51828C20.4248 7.55988 21.0453 7.7037 21.5893 7.91473C22.1511 8.13251 22.6257 8.42407 23.1004 8.89874C23.5751 9.37305 23.8666 9.84915 24.0853 10.4104C24.2951 10.953 24.4391 11.5731 24.4818 12.4815C24.5227 13.3918 24.5333 13.6826 24.5333 16.0001C24.5333 18.3177 24.5227 18.6078 24.4818 19.518C24.4391 20.4261 24.2951 21.0464 24.0853 21.5892C23.8666 22.1503 23.5751 22.6263 23.1004 23.1007C22.6263 23.5753 22.1509 23.8676 21.5898 24.0856C21.0469 24.2966 20.4261 24.4404 19.5176 24.482C18.6074 24.5234 18.3174 24.5336 15.9997 24.5336C13.6824 24.5336 13.3917 24.5234 12.4815 24.482C11.5732 24.4404 10.9529 24.2966 10.41 24.0856C9.84908 23.8676 9.37298 23.5753 8.89884 23.1007C8.42435 22.6263 8.13279 22.1503 7.91466 21.589C7.70381 21.0464 7.55999 20.4263 7.51821 19.5179C7.47696 18.6076 7.46665 18.3177 7.46665 16.0001C7.46665 13.6826 7.47732 13.3916 7.51803 12.4814C7.55892 11.5733 7.70292 10.953 7.91448 10.4102C8.13315 9.84915 8.42471 9.37305 8.89938 8.89874C9.37369 8.42424 9.84979 8.13269 10.411 7.91473C10.9536 7.7037 11.5737 7.55988 12.4822 7.51828Z" fill="#B4F8D1"/>
<path fill-rule="evenodd" clip-rule="evenodd" d="M15.2355 9.00457C15.3841 9.00434 15.544 9.00441 15.7166 9.00449L16.001 9.00457C18.2794 9.00457 18.5495 9.01275 19.4492 9.05364C20.2812 9.09169 20.7328 9.23071 21.0336 9.34751C21.4318 9.50218 21.7157 9.68707 22.0142 9.98574C22.3129 10.2844 22.4978 10.5689 22.6528 10.9671C22.7696 11.2675 22.9088 11.7191 22.9467 12.5511C22.9876 13.4507 22.9964 13.7209 22.9964 15.9982C22.9964 18.2756 22.9876 18.5458 22.9467 19.4454C22.9086 20.2774 22.7696 20.729 22.6528 21.0294C22.4981 21.4276 22.3129 21.7112 22.0142 22.0097C21.7155 22.3084 21.432 22.4932 21.0336 22.6479C20.7331 22.7653 20.2812 22.9039 19.4492 22.942C18.5496 22.9829 18.2794 22.9917 16.001 22.9917C13.7224 22.9917 13.4524 22.9829 12.5528 22.942C11.7208 22.9036 11.2692 22.7645 10.9682 22.6477C10.57 22.4931 10.2856 22.3082 9.98689 22.0095C9.68822 21.7108 9.50333 21.4271 9.34831 21.0287C9.23151 20.7283 9.09231 20.2767 9.05444 19.4447C9.01355 18.5451 9.00537 18.2749 9.00537 15.9961C9.00537 13.7173 9.01355 13.4485 9.05444 12.549C9.09248 11.717 9.23151 11.2654 9.34831 10.9646C9.50298 10.5664 9.68822 10.2819 9.98689 9.98325C10.2856 9.68458 10.57 9.49969 10.9682 9.34467C11.269 9.22733 11.7208 9.08866 12.5528 9.05044C13.34 9.01489 13.6451 9.00422 15.2355 9.00244V9.00457ZM20.5561 10.4215C19.9907 10.4215 19.5321 10.8796 19.5321 11.4452C19.5321 12.0105 19.9907 12.4692 20.5561 12.4692C21.1214 12.4692 21.5801 12.0105 21.5801 11.4452C21.5801 10.8798 21.1214 10.4212 20.5561 10.4212V10.4215ZM11.6187 16.0002C11.6187 13.5801 13.5808 11.618 16.0008 11.6179C18.4209 11.6179 20.3826 13.5801 20.3826 16.0002C20.3826 18.4203 18.4211 20.3815 16.001 20.3815C13.5809 20.3815 11.6187 18.4203 11.6187 16.0002Z" fill="#B4F8D1"/>
<path d="M16.0007 13.1555C17.5716 13.1555 18.8452 14.429 18.8452 16C18.8452 17.5709 17.5716 18.8445 16.0007 18.8445C14.4297 18.8445 13.1562 17.5709 13.1562 16C13.1562 14.429 14.4297 13.1555 16.0007 13.1555Z" fill="#B4F8D1"/>
</svg>
